Coordinates
version=1
nRows=24
nColumns=24
inDegrees=yes

Units are S.I. units (second, meters, Newtons, ...)
Angles are in degrees.

endheader
time	pelvis_tilt	pelvis_list	pelvis_rotation	pelvis_tx	pelvis_ty	pelvis_tz	hip_flexion_r	hip_adduction_r	hip_rotation_r	knee_angle_r	ankle_angle_r	subtalar_angle_r	mtp_angle_r	hip_flexion_l	hip_adduction_l	hip_rotation_l	knee_angle_l	ankle_angle_l	subtalar_angle_l	mtp_angle_l	lumbar_extension	lumbar_bending	lumbar_rotation
      5.59000000	     -2.35432663	      0.12565895	     -2.81137734	      1.23970391	      1.03821112	     -0.18420354	     -1.31039267	      4.96030698	     10.61571152	     -9.06069952	     14.94863512	    -11.18958235	      0.00000000	     27.85842899	     -4.86056584	    -16.50900769	    -48.29225492	      8.10889561	     -3.19204535	      0.00000000	    -11.55065233	     -1.79699190	      4.20529120
      5.59500000	     -2.44861519	      0.12256230	     -2.93569874	      1.24550197	      1.03799164	     -0.18441386	     -1.68258985	      4.90611074	     10.75277134	     -8.80728278	     14.91911791	    -11.20721660	      0.00000000	     28.01743596	     -4.76042272	    -16.56583214	    -46.70346390	      8.43252142	     -2.70540414	      0.00000000	    -11.44996033	     -1.79647938	      4.33855088
      5.60000000	     -2.43683577	      0.12831176	     -3.15649555	      1.25131136	      1.03786719	     -0.18447734	     -2.15822617	      4.84035964	     11.05854560	     -8.57799470	     14.85914867	    -11.34686253	      0.00000000	     28.00463459	     -4.68085047	    -16.70363612	    -45.03310143	      8.73147661	     -2.27750097	      0.00000000	    -11.48173860	     -1.83681597	      4.61568503
      5.60500000	     -2.55159727	      0.08477853	     -3.24147892	      1.25712861	      1.03747561	     -0.18479455	     -2.48713894	      4.83059898	     11.12812068	     -8.37223892	     14.84817774	    -11.37045403	      0.00000000	     28.14706577	     -4.58008931	    -16.65142100	    -43.35983759	      8.95985565	     -1.84540315	      0.00000000	    -11.36847730	     -1.77578746	      4.74010646
      5.61000000	     -2.48288805	      0.07832607	     -3.47472757	      1.26306067	      1.03731125	     -0.18488342	     -3.03743070	      4.76326010	     11.50100288	     -8.13160266	     14.78114119	    -11.53515379	      0.00000000	     28.01083681	     -4.50414741	    -16.79366296	    -41.58942659	      9.15530326	     -1.48966017	      0.00000000	    -11.45301945	     -1.79843709	      5.00295261
      5.61500000	     -2.58398504	      0.00542923	     -3.55835077	      1.26895061	      1.03681060	     -0.18521324	     -3.37924684	      4.78171333	     11.59984135	     -7.94619476	     14.78229422	    -11.56622682	      0.00000000	     28.08337012	     -4.41675413	    -16.68252361	    -39.82642607	      9.31055394	     -1.08721361	      0.00000000	    -11.34930962	     -1.70805163	      5.12127502
      5.62000000	     -2.49504265	     -0.02476862	     -3.75830301	      1.27494900	      1.03655332	     -0.18542705	     -3.94909852	      4.72927522	     11.91859607	     -7.71683726	     14.71842151	    -11.72861203	      0.00000000	     27.87571498	     -4.32321246	    -16.73988807	    -37.96226136	      9.42842901	     -0.80117646	      0.00000000	    -11.46387466	     -1.68740838	      5.35992027
      5.62500000	     -2.55325464	     -0.10872043	     -3.85281411	      1.28094999	      1.03600959	     -0.18577261	     -4.34995531	      4.74803216	     12.06372548	     -7.52227824	     14.70986406	    -11.76795698	      0.00000000	     27.83766994	     -4.23937462	    -16.60766686	    -36.10522892	      9.51453040	     -0.42859602	      0.00000000	    -11.40171050	     -1.58208584	      5.47803439
      5.63000000	     -2.52232502	     -0.16841898	     -3.99113444	      1.28698797	      1.03555352	     -0.18613597	     -4.84685365	      4.72472054	     12.28040312	     -7.32709896	     14.69269424	    -11.84769836	      0.00000000	     27.65471352	     -4.12981465	    -16.51128836	    -34.17112954	      9.56291414	     -0.13685576	      0.00000000	    -11.45192170	     -1.50579885	      5.65876378
      5.63500000	     -2.42729126	     -0.27430817	     -4.11764674	      1.29301925	      1.03513392	     -0.18648413	     -5.41212655	      4.74852857	     12.46650201	     -7.13574091	     14.64431350	    -11.94375153	      0.00000000	     27.38250381	     -4.05181017	    -16.34449615	    -32.20626020	      9.58221128	      0.13120669	      0.00000000	    -11.58747671	     -1.39470571	      5.84352964
      5.64000000	     -2.42859077	     -0.36976933	     -4.21575209	      1.29917094	      1.03451560	     -0.18691525	     -5.87933160	      4.76303805	     12.60215407	     -6.95072756	     14.64854756	    -11.97314688	      0.00000000	     27.18782846	     -3.95301580	    -16.13205473	    -30.21213422	      9.58948002	      0.40489086	      0.00000000	    -11.58400959	     -1.27360170	      5.97430275
      5.64500000	     -2.39428930	     -0.47534711	     -4.30388315	      1.30533079	      1.03391605	     -0.18741097	     -6.38493038	      4.77867564	     12.74308018	     -6.77098583	     14.64750539	    -11.97831908	      0.00000000	     26.93118290	     -3.84965952	    -15.86013913	    -28.18506478	      9.54077973	      0.65988205	      0.00000000	    -11.63306384	     -1.13290943	      6.10238605
      5.65000000	     -2.35724930	     -0.59376701	     -4.38724050	      1.31152458	      1.03327206	     -0.18793334	     -6.89248184	      4.80541225	     12.86869502	     -6.59946406	     14.65634926	    -11.96765845	      0.00000000	     26.64680195	     -3.75298372	    -15.52787204	    -26.13277774	      9.46062625	      0.88845474	      0.00000000	    -11.68613246	     -0.97754597	      6.23096929
      5.65500000	     -2.32635438	     -0.72212686	     -4.46519432	      1.31778618	      1.03257731	     -0.18845863	     -7.39477792	      4.84240830	     12.97466324	     -6.43636882	     14.66595164	    -11.93560962	      0.00000000	     26.34399944	     -3.66586496	    -15.14480213	    -24.06379371	      9.34716183	      1.09038597	      0.00000000	    -11.72264370	     -0.81351854	      6.35305179
      5.66000000	     -2.21216412	     -0.82703114	     -4.52938945	      1.32413814	      1.03195221	     -0.18899437	     -7.98887252	      4.84911556	     13.03028151	     -6.26932161	     14.67560663	    -11.90946808	      0.00000000	     25.92139940	     -3.54925520	    -14.72347147	    -21.97189235	      9.22053030	      1.30773000	      0.00000000	    -11.84916470	     -0.68805906	      6.45934845
      5.66500000	     -2.17014442	     -0.94824782	     -4.59297074	      1.33052638	      1.03118896	     -0.18958472	     -8.49977107	      4.87271122	     13.11175491	     -6.12864660	     14.70363415	    -11.84510583	      0.00000000	     25.55988056	     -3.44948519	    -14.21353398	    -19.88095150	      9.02016819	      1.39503134	      0.00000000	    -11.88545402	     -0.52753386	      6.55956808
      5.67000000	     -2.15375226	     -1.08932151	     -4.67293796	      1.33694772	      1.03035236	     -0.19018192	     -8.97367663	      4.91625644	     13.18616749	     -6.01324045	     14.73330410	    -11.76300483	      0.00000000	     25.20681890	     -3.38045422	    -13.63980105	    -17.79879474	      8.76879863	      1.36002689	      0.00000000	    -11.88572361	     -0.34013884	      6.68493286
      5.67500000	     -2.10021509	     -1.21887132	     -4.73473090	      1.34342797	      1.02953306	     -0.19079067	     -9.48221219	      4.94567561	     13.24913643	     -5.91615798	     14.77946180	    -11.65589713	      0.00000000	     24.79568188	     -3.30127265	    -12.97961302	    -15.73021687	      8.45325534	      1.25694381	      0.00000000	    -11.92808818	     -0.17223779	      6.77996332
      5.68000000	     -2.02048911	     -1.33764594	     -4.77897617	      1.34995234	      1.02870904	     -0.19143622	    -10.01004975	      4.96090276	     13.30894312	     -5.84337714	     14.85321377	    -11.51863563	      0.00000000	     24.34437424	     -3.21556517	    -12.24015399	    -13.69278384	      8.06933858	      1.06733714	      0.00000000	    -12.00238849	     -0.01364912	      6.85022724
      5.68500000	     -2.03129452	     -1.54510350	     -4.90933204	      1.35637829	      1.02775716	     -0.19194266	    -10.40900779	      5.06976710	     13.46122046	     -5.84466810	     14.90959191	    -11.35465884	      0.00000000	     23.99530219	     -3.28423949	    -11.53659664	    -11.74813770	      7.66188409	      0.77659788	      0.00000000	    -11.98745889	      0.24094589	      7.03522996
      5.69000000	     -1.94328267	     -1.63943621	     -4.92441174	      1.36312273	      1.02687848	     -0.19260917	    -10.93148532	      5.06583229	     13.42313673	     -5.81557450	     14.98822842	    -11.18941605	      0.00000000	     23.50128902	     -3.18867239	    -10.64162370	     -9.78859088	      7.14848924	      0.26476862	      0.00000000	    -12.03319946	      0.36636120	      7.06161602
      5.69500000	     -1.90157326	     -1.79795233	     -5.00710622	      1.36975853	      1.02593832	     -0.19313314	    -11.37279993	      5.12684788	     13.47216512	     -5.85593851	     15.08660381	    -10.96759676	      0.00000000	     23.07487527	     -3.22131869	     -9.80601196	     -7.95616363	      6.61513778	     -0.27719135	      0.00000000	    -12.04978102	      0.55190899	      7.16700404
      5.70000000	     -1.86904793	     -1.96332320	     -5.07862186	      1.37640744	      1.02497508	     -0.19363981	    -11.78287673	      5.20078039	     13.50158838	     -5.94357666	     15.19932110	    -10.71067294	      0.00000000	     22.67405174	     -3.28187513	     -8.95273377	     -6.23680416	      6.04995598	     -0.88742618	      0.00000000	    -12.05769343	      0.74374593	      7.25875191
      5.70500000	     -1.84753590	     -2.13656522	     -5.15369901	      1.38306194	      1.02400163	     -0.19413107	    -12.15596182	      5.28481659	     13.51268984	     -6.08386850	     15.32557901	    -10.40830946	      0.00000000	     22.30535919	     -3.37461460	     -8.12955967	     -4.64612273	      5.47713742	     -1.53515140	      0.00000000	    -12.05346652	      0.94234076	      7.34939431
